<svg xmlns="http://www.w3.org/2000/svg" width="30" height="30" viewBox="0 0 30 30" fill="black">
  <path d="M26.76 20.753c-.065 1.44-.306 2.223-.507 2.744a4.565 4.565 0 0 1-1.103 1.698 4.57 4.57 0 0 1-1.697 1.107c-.52.201-1.3.443-2.74.509-1.555.07-2.022.087-5.96.087-3.94 0-4.407-.017-5.96-.087-1.44-.066-2.22-.308-2.74-.509a4.545 4.545 0 0 1-1.696-1.107 4.565 4.565 0 0 1-1.104-1.698c-.202-.521-.443-1.305-.509-2.744-.07-1.559-.085-2.027-.085-5.973 0-3.947.015-4.413.085-5.972.066-1.441.307-2.224.51-2.745a4.57 4.57 0 0 1 1.103-1.7 4.56 4.56 0 0 1 1.696-1.105c.52-.203 1.3-.442 2.74-.509 1.555-.071 2.02-.087 5.96-.087 3.938 0 4.405.016 5.96.087 1.44.067 2.22.306 2.74.509.688.268 1.18.588 1.697 1.106a4.57 4.57 0 0 1 1.103 1.699c.2.52.442 1.304.508 2.745.07 1.559.086 2.025.086 5.972 0 3.946-.016 4.414-.086 5.973m2.654-12.066c-.07-1.574-.32-2.65-.686-3.588a7.25 7.25 0 0 0-1.7-2.62A7.247 7.247 0 0 0 24.416.775C23.477.41 22.406.16 20.835.09 19.262.017 18.759 0 14.752 0c-4.006 0-4.507.017-6.08.088C7.1.161 6.026.41 5.088.776a7.26 7.26 0 0 0-2.613 1.703 7.25 7.25 0 0 0-1.7 2.62C.41 6.036.16 7.112.09 8.686.018 10.261 0 10.766 0 14.78c0 4.014.018 4.518.09 6.094.07 1.574.32 2.648.685 3.588.378.972.88 1.796 1.701 2.617a7.22 7.22 0 0 0 2.613 1.704c.938.366 2.012.617 3.582.688 1.574.073 2.075.09 6.081.09 4.007 0 4.51-.017 6.083-.09 1.57-.071 2.642-.322 3.581-.688a7.208 7.208 0 0 0 2.613-1.704 7.244 7.244 0 0 0 1.7-2.617c.366-.94.616-2.014.686-3.588.072-1.576.09-2.08.09-6.094s-.018-4.518-.09-6.093"></path>
  <path d="M14.752 19.707a4.921 4.921 0 0 1-4.916-4.928 4.92 4.92 0 0 1 4.916-4.926 4.922 4.922 0 0 1 4.918 4.926 4.922 4.922 0 0 1-4.918 4.928m0-12.516c-4.183 0-7.575 3.397-7.575 7.588 0 4.193 3.392 7.59 7.575 7.59 4.185 0 7.576-3.397 7.576-7.59 0-4.19-3.391-7.588-7.576-7.588m7.876-2.075a1.773 1.773 0 0 0 0 3.548 1.77 1.77 0 0 0 1.77-1.773c0-.98-.793-1.775-1.77-1.775"></path>
</svg>