<svg xmlns="http://www.w3.org/2000/svg" width="30" height="30" viewBox="0 0 30 30" fill="black">
  <path d="M5.872 8.596c1.788 0 2.904-1.244 2.904-2.799C8.743 4.21 7.66 3 5.906 3 4.147 3 3 4.21 3 5.797c0 1.555 1.115 2.799 2.838 2.799h.034zM3.305 27V10.806h5.133V27H3.305zm7.975 0s.067-14.674 0-16.193h5.135v2.347h-.034c.675-1.106 1.89-2.728 4.66-2.728 3.378 0 5.912 2.315 5.912 7.288V27H21.82v-8.665c0-2.175-.743-3.66-2.6-3.66-1.42 0-2.265 1-2.635 1.969-.136.344-.17.828-.17 1.313V27H11.28z"></path>
</svg>