<svg xmlns="http://www.w3.org/2000/svg"  width="115px" height="40px" viewBox="0 0 115 40" fill="black">
  <path d="M15.7887653,13.5081983 C16.1356091,13.5081983 16.2703541,13.959012 15.9804859,14.1494849 L11.5723681,17.0458797 C11.4405342,17.1323827 11.2889461,17.1843676 11.1317435,17.1966361 L9.2812864,17.3419861 C9.10121046,17.356126 8.96251455,17.505011 8.96251455,17.6852948 C8.96251455,23.679994 8.96251455,30.3299117 8.96251455,30.3467549 C8.96209867,30.3581916 8.96168279,30.3681727 8.96126691,30.3794014 C8.96126691,33.3862123 11.6438995,33.6347004 14.9773839,32.615795 C15.1996716,32.5477986 15.4240388,32.7172696 15.4240388,32.9501623 L15.4240388,34.2094463 C15.4240388,34.4408834 15.3250594,34.660052 15.1468549,34.8074814 C13.3770785,36.2705465 10.8547676,37.642326 7.61818315,37.642326 C0.617262861,37.642326 1.00382312,30.3644298 1.00382312,30.3644298 L1.00382312,12.3973834 C1.00382312,12.2798973 1.06308599,12.1701051 1.16144156,12.1054358 L8.42145495,7.33633436 C8.65372381,7.18370647 8.96251455,7.35026633 8.96251455,7.62828196 L8.96251455,13.1588593 C8.96251455,13.3518275 9.11888535,13.5081983 9.31185357,13.5081983 L15.7887653,13.5081983 Z M23.28373,2.24584104 C25.6267967,2.24584104 27.5261197,4.14537195 27.5261197,6.48823071 C27.5261197,8.83129742 25.6267967,10.7306204 23.28373,10.7306204 C20.9406633,10.7306204 19.0413403,8.83129742 19.0413403,6.48823071 C19.0413403,4.14537195 20.9406633,2.24584104 23.28373,2.24584104 Z M26.7210388,13.8541271 C26.9537235,13.7012913 27.2631381,13.8680591 27.2631381,14.1464906 L27.2631381,36.9383663 C27.2631381,37.1313345 27.1065594,37.2881212 26.9131753,37.2881212 L19.6544095,37.2881212 C19.4610254,37.2881212 19.3044467,37.1313345 19.3044467,36.9383663 L19.3044467,19.0638531 C19.3044467,18.8536259 19.4100801,18.6577465 19.5857893,18.5423399 L26.7210388,13.8541271 Z M41.7745354,3.96479695 C42.0072201,3.81196113 42.3166347,3.97872892 42.3166347,4.25716043 L42.3166347,36.9380336 C42.3166347,37.1314177 42.1600559,37.2882043 41.9666718,37.2882043 L34.708114,37.2882043 C34.5147299,37.2882043 34.3579432,37.1314177 34.3579432,36.9380336 L34.3579432,9.174523 C34.3579432,8.96429577 34.4637846,8.76841639 34.6392859,8.65300975 L41.7745354,3.96479695 Z M109.548738,29.157609 C111.892013,29.157609 113.791128,31.0571399 113.791128,33.3997907 C113.791128,35.7428574 111.892013,37.6423884 109.548738,37.6423884 C107.205671,37.6423884 105.306556,35.7428574 105.306556,33.3997907 C105.306556,31.0571399 107.205671,29.157609 109.548738,29.157609 Z M56.8823666,3.96469298 C57.1150514,3.81185716 57.424258,3.97862495 57.424258,4.25705646 L57.424258,36.9379296 C57.424258,37.1313137 57.2676793,37.2881004 57.0740872,37.2881004 L49.8159453,37.2881004 C49.6225612,37.2881004 49.4657745,37.1313137 49.4657745,36.9379296 L49.4657745,9.17441903 C49.4657745,8.96439974 49.571408,8.76852036 49.7471172,8.65311372 L56.8823666,3.96469298 Z M109.42466,18.3541751 C109.602449,18.5045156 109.587477,18.7841948 109.391598,18.9129096 L103.769111,22.6077935 C103.628959,22.6999109 103.443061,22.6795328 103.326199,22.5593435 L100.418575,19.55482 C100.184643,19.3148574 99.8138863,19.2738932 99.5337912,19.4575042 C98.3865868,20.2081672 97.6951867,21.4865816 97.6951867,22.8575293 L97.6951867,36.9383871 C97.6951867,37.1313553 97.538608,37.288142 97.3454318,37.288142 L90.0864581,37.288142 C89.893074,37.288142 89.7364953,37.1313553 89.7364953,36.9383871 L89.7364953,19.0453673 C89.7364953,18.8349321 89.8427526,18.6386369 90.0188776,18.5234382 L97.1537112,13.8541479 C97.386396,13.7017279 97.6951867,13.8687037 97.6951867,14.1469273 L97.6951867,16.642206 C97.6951867,16.9200137 98.0035616,17.0869894 98.2362463,16.9351933 L101.4537,14.8366639 C102.645196,14.0589687 104.202042,14.1377779 105.309114,15.0315036 L109.42466,18.3541751 Z M74.0784135,13.5012739 C78.6474767,13.5012739 81.901944,15.7158337 83.6721363,19.0580516 C84.4629317,20.5510601 84.8756924,22.4894757 84.9341235,24.21808 C84.9420252,24.4507648 84.7507205,24.6410298 84.5178278,24.6410298 L71.1242114,24.6424854 C70.9135683,24.6424854 70.7474243,24.827136 70.776328,25.0356997 C71.3895427,29.4635718 74.2998695,35.0205574 83.8603219,32.5685302 C84.0830255,32.5113468 84.3013624,32.6762431 84.3011544,32.9062246 L84.3001147,34.1740341 C84.2999068,34.4110856 84.1957289,34.6389877 84.0092068,34.7853774 C81.7748927,36.5410139 78.570331,37.6422636 74.5454465,37.6422636 C67.541615,37.6422636 62.4882598,32.2381137 62.4882598,25.5717687 C62.4882598,17.0632842 69.1741511,13.5012739 74.0784135,13.5012739 Z M76.9606683,21.4776402 C77.1511413,21.4626685 77.2958674,21.2965246 77.2827672,21.1056357 C77.0297044,17.4442301 75.9904208,15.459028 73.9925343,15.459028 C71.8817364,15.459028 70.8717724,17.641773 70.6765168,21.5780752 C70.6661198,21.7878865 70.8445323,21.9590211 71.0541357,21.9425938 L76.9606683,21.4776402 Z"></path>
</svg>