<svg xmlns="http://www.w3.org/2000/svg" width="30" height="30" viewBox="0 0 30 30" fill="black">
  <path d="M29.942 5.84a12.368 12.368 0 0 1-3.528.956 6.116 6.116 0 0 0 2.701-3.351 12.368 12.368 0 0 1-3.903 1.468A6.163 6.163 0 0 0 20.73 3c-3.393 0-6.144 2.714-6.144 6.058 0 .476.055.936.161 1.38a17.512 17.512 0 0 1-12.663-6.33 5.98 5.98 0 0 0-.83 3.048c0 2.1 1.082 3.957 2.73 5.042a6.143 6.143 0 0 1-2.78-.757v.077c0 2.936 2.113 5.383 4.928 5.94a6.197 6.197 0 0 1-2.777.101c.783 2.409 3.052 4.16 5.74 4.211a12.442 12.442 0 0 1-7.631 2.593c-.497 0-.984-.03-1.464-.085A17.562 17.562 0 0 0 9.418 27c11.297 0 17.476-9.233 17.476-17.239 0-.261-.006-.524-.016-.783a12.396 12.396 0 0 0 3.064-3.137"></path>
</svg>